<svg xmlns="http://www.w3.org/2000/svg" aria-hidden="true" overflow="hidden" style="position:absolute;width:0;height:0">
  <defs>
    <symbol id="icon-exclamation-mark" viewBox="0 0 28 28">
      <path d="m28 14-3.105-3.538.433-4.684-4.595-1.044L18.328.687l-4.327 1.858L9.674.687 7.269 4.734 2.674 5.765l.433 4.684L.002 14l3.105 3.538-.433 4.696 4.595 1.044 2.405 4.047 4.327-1.871 4.327 1.858 2.405-4.047 4.595-1.044-.433-4.684L28 13.999zm-12.727 6.364h-2.545v-2.545h2.545v2.545zm0-5.091h-2.545V7.637h2.545v7.636z"/>
    </symbol>
    <symbol id="icon-calendar" viewBox="0 0 26 28">
      <path stroke-linecap="round" stroke-linejoin="round" stroke-width="3.111" d="M21.603 4.667H5.27A2.333 2.333 0 0 0 2.937 7v16.333a2.333 2.333 0 0 0 2.333 2.333h16.333a2.333 2.333 0 0 0 2.333-2.333V7a2.333 2.333 0 0 0-2.333-2.333zm-3.5-2.334V7M8.77 2.333V7m-5.834 4.667h21"/>
    </symbol>
    <symbol id="icon-tel" viewBox="0 0 28 28">
      <path stroke-linecap="round" stroke-linejoin="round" stroke-width="2.435" d="M16.968 6.087a6.08 6.08 0 0 1 4.809 4.809l-4.809-4.809zm0-4.87a10.959 10.959 0 0 1 9.678 9.666l-9.678-9.666zm8.461 19.381v3.652a2.435 2.435 0 0 1-2.654 2.434 24.092 24.092 0 0 1-10.506-3.737 23.744 23.744 0 0 1-7.304-7.304A24.09 24.09 0 0 1 1.228 5.088c-.03-.337.01-.676.117-.996s.281-.615.509-.864a2.438 2.438 0 0 1 1.795-.794h3.652a2.431 2.431 0 0 1 2.435 2.094c.154 1.169.44 2.316.852 3.421a2.435 2.435 0 0 1-.548 2.569l-1.546 1.546a19.48 19.48 0 0 0 7.304 7.304l1.546-1.546a2.437 2.437 0 0 1 2.569-.548c1.105.412 2.252.698 3.421.852a2.436 2.436 0 0 1 2.094 2.471z"/>
    </symbol>
    <symbol id="icon-logo" viewBox="0 0 27 28">
      <path stroke-width="2.059" d="M26.147 14c0 6.936-5.623 12.559-12.559 12.559S1.029 20.936 1.029 14c0-6.936 5.623-12.559 12.559-12.559S26.147 7.064 26.147 14z"/>
      <path stroke-linecap="round" stroke-linejoin="round" stroke-width="2.059" d="M20.396 10.446c.103 1.074-.285 2.152-1.081 2.995l-4.761 5.062-6.559.631-.552-5.735 4.77-5.056c.796-.843 1.933-1.383 3.161-1.502l4.297.103.725 3.502zm-3.925-.152L4.118 22.647m13.176-7.412h-5.765m4.942-4.941h-5.765"/>
    </symbol>
  </defs>
</svg>
