<svg aria-hidden="true" style="position: absolute; width: 0; height: 0; overflow: hidden;" version="1.1" xmlns="http://www.w3.org/2000/svg" xmlns:xlink="http://www.w3.org/1999/xlink">
<defs>
<symbol id="icon-exclamation-mark" viewBox="0 0 28 28">
<path d="M28 14l-3.105-3.538 0.433-4.684-4.595-1.044-2.405-4.047-4.327 1.858-4.327-1.858-2.405 4.047-4.595 1.031 0.433 4.684-3.105 3.551 3.105 3.538-0.433 4.696 4.595 1.044 2.405 4.047 4.327-1.871 4.327 1.858 2.405-4.047 4.595-1.044-0.433-4.684 3.105-3.538zM15.273 20.364h-2.545v-2.545h2.545v2.545zM15.273 15.273h-2.545v-7.636h2.545v7.636z"></path>
</symbol>
<symbol id="icon-calendar" viewBox="0 0 26 28">
<path stroke-linejoin="round" stroke-linecap="round" stroke-miterlimit="4" stroke-width="3.1111" d="M21.603 4.667h-16.333c-1.289 0-2.333 1.045-2.333 2.333v16.333c0 1.289 1.045 2.333 2.333 2.333h16.333c1.289 0 2.333-1.045 2.333-2.333v-16.333c0-1.289-1.045-2.333-2.333-2.333z"></path>
<path stroke-linejoin="round" stroke-linecap="round" stroke-miterlimit="4" stroke-width="3.1111" d="M18.103 2.333v4.667"></path>
<path stroke-linejoin="round" stroke-linecap="round" stroke-miterlimit="4" stroke-width="3.1111" d="M8.77 2.333v4.667"></path>
<path stroke-linejoin="round" stroke-linecap="round" stroke-miterlimit="4" stroke-width="3.1111" d="M2.936 11.667h21"></path>
</symbol>
<symbol id="icon-tel" viewBox="0 0 28 28">
<path stroke-linejoin="round" stroke-linecap="round" stroke-miterlimit="4" stroke-width="2.4348" d="M16.968 6.087c1.189 0.232 2.282 0.814 3.139 1.67s1.438 1.949 1.67 3.139l-4.809-4.809zM16.968 1.217c2.47 0.274 4.774 1.381 6.533 3.137s2.868 4.059 3.145 6.529l-9.678-9.666zM25.429 20.598v3.652c0.001 0.339-0.068 0.675-0.204 0.985s-0.335 0.59-0.585 0.819c-0.25 0.229-0.545 0.404-0.866 0.512s-0.662 0.149-0.999 0.118c-3.746-0.407-7.345-1.687-10.506-3.737-2.941-1.869-5.435-4.363-7.304-7.304-2.057-3.176-3.338-6.792-3.737-10.555-0.030-0.337 0.010-0.676 0.117-0.996s0.281-0.615 0.509-0.864c0.228-0.25 0.505-0.449 0.814-0.586s0.643-0.207 0.981-0.208h3.652c0.591-0.006 1.164 0.203 1.612 0.589s0.741 0.92 0.823 1.505c0.154 1.169 0.44 2.316 0.852 3.421 0.164 0.436 0.199 0.909 0.102 1.365s-0.323 0.873-0.65 1.204l-1.546 1.546c1.733 3.048 4.257 5.571 7.304 7.304l1.546-1.546c0.331-0.327 0.749-0.553 1.204-0.65s0.929-0.062 1.365 0.102c1.105 0.412 2.252 0.698 3.421 0.852 0.591 0.083 1.131 0.381 1.518 0.837s0.591 1.037 0.576 1.634z"></path>
</symbol>
<symbol id="icon-Logo" viewBox="0 0 27 28">
<path stroke-linejoin="miter" stroke-linecap="butt" stroke-miterlimit="4" stroke-width="2.0588" d="M26.147 14c0 6.936-5.623 12.559-12.559 12.559s-12.559-5.623-12.559-12.559c0-6.936 5.623-12.559 12.559-12.559s12.559 5.623 12.559 12.559z"></path>
<path stroke-linejoin="round" stroke-linecap="round" stroke-miterlimit="4" stroke-width="2.0588" d="M20.396 10.446c0.103 1.074-0.285 2.152-1.081 2.995l-4.761 5.062-6.559 0.631-0.552-5.735 4.77-5.056c0.796-0.843 1.933-1.383 3.161-1.502l4.297 0.103 0.725 3.502z"></path>
<path stroke-linejoin="round" stroke-linecap="round" stroke-miterlimit="4" stroke-width="2.0588" d="M16.471 10.294l-12.353 12.353"></path>
<path stroke-linejoin="round" stroke-linecap="round" stroke-miterlimit="4" stroke-width="2.0588" d="M17.294 15.235h-5.765"></path>
<path stroke-linejoin="round" stroke-linecap="round" stroke-miterlimit="4" stroke-width="2.0588" d="M16.471 10.294h-5.765"></path>
</symbol>
</defs>
</svg>
